<svg width="85" height="27" viewBox="0 0 85 27" fill="none" xmlns="http://www.w3.org/2000/svg">
<g clip-path="url(#clip0_96_2)">
<rect width="85" height="27" fill="#0F0F0F"/>
<path d="M17.8993 8.576C18.8486 8.576 19.6273 8.69867 20.2353 8.944C20.854 9.17867 21.3126 9.536 21.6113 10.016C21.91 10.496 22.0593 11.0987 22.0593 11.824C22.0593 12.432 21.9473 12.9387 21.7233 13.344C21.4993 13.7493 21.2113 14.0747 20.8593 14.32C20.518 14.5547 20.1553 14.7413 19.7713 14.88L22.9073 20H21.2273L18.4593 15.28H16.1873V20H14.7473V8.576H17.8993ZM17.8193 9.824H16.1873V14.064H17.8993C18.518 14.064 19.0246 13.984 19.4193 13.824C19.814 13.6533 20.102 13.408 20.2833 13.088C20.4753 12.768 20.5713 12.368 20.5713 11.888C20.5713 11.3867 20.47 10.9867 20.2673 10.688C20.0753 10.3893 19.7766 10.1707 19.3713 10.032C18.966 9.89333 18.4486 9.824 17.8193 9.824ZM33.3884 15.968C33.3884 16.7573 33.2284 17.472 32.9084 18.112C32.5884 18.7413 32.0978 19.2427 31.4364 19.616C30.7858 19.9787 29.9538 20.16 28.9404 20.16C27.5218 20.16 26.4391 19.776 25.6924 19.008C24.9564 18.2293 24.5884 17.2053 24.5884 15.936V8.576H26.0284V15.984C26.0284 16.912 26.2738 17.632 26.7644 18.144C27.2658 18.656 28.0178 18.912 29.0204 18.912C29.7138 18.912 30.2738 18.7893 30.7004 18.544C31.1378 18.288 31.4578 17.9413 31.6604 17.504C31.8631 17.056 31.9644 16.544 31.9644 15.968V8.576H33.3884V15.968ZM45.5556 14.176C45.5556 15.456 45.3156 16.528 44.8356 17.392C44.3662 18.256 43.6889 18.9067 42.8036 19.344C41.9182 19.7813 40.8462 20 39.5876 20H36.4036V8.576H39.9236C41.0756 8.576 42.0729 8.78933 42.9156 9.216C43.7582 9.64267 44.4089 10.272 44.8676 11.104C45.3262 11.9253 45.5556 12.9493 45.5556 14.176ZM44.0356 14.224C44.0356 13.2107 43.8649 12.3787 43.5236 11.728C43.1929 11.0773 42.7022 10.5973 42.0516 10.288C41.4116 9.968 40.6329 9.808 39.7156 9.808H37.8436V18.768H39.3956C40.9422 18.768 42.0996 18.3893 42.8676 17.632C43.6462 16.864 44.0356 15.728 44.0356 14.224ZM54.4751 20H48.0911V8.576H54.4751V9.84H49.5311V13.408H54.1871V14.656H49.5311V18.736H54.4751V20ZM65.0297 8.576L60.9497 20H59.5097L55.4297 8.576H56.9337L59.5097 15.904C59.627 16.2133 59.7284 16.512 59.8137 16.8C59.899 17.088 59.9737 17.3653 60.0377 17.632C60.1124 17.888 60.1764 18.144 60.2297 18.4C60.283 18.144 60.3417 17.8827 60.4057 17.616C60.4804 17.3493 60.5604 17.072 60.6457 16.784C60.7417 16.496 60.843 16.192 60.9497 15.872L63.5097 8.576H65.0297ZM73.0554 16.944C73.0554 17.6267 72.8901 18.208 72.5594 18.688C72.2288 19.1573 71.7541 19.52 71.1354 19.776C70.5274 20.032 69.8074 20.16 68.9754 20.16C68.5488 20.16 68.1381 20.1387 67.7434 20.096C67.3594 20.0533 67.0074 19.9947 66.6874 19.92C66.3674 19.8347 66.0848 19.7333 65.8394 19.616V18.24C66.2234 18.4107 66.6981 18.5653 67.2634 18.704C67.8394 18.8427 68.4314 18.912 69.0394 18.912C69.6048 18.912 70.0794 18.8373 70.4634 18.688C70.8474 18.5387 71.1354 18.3253 71.3274 18.048C71.5194 17.7707 71.6154 17.4453 71.6154 17.072C71.6154 16.6987 71.5354 16.384 71.3754 16.128C71.2154 15.872 70.9381 15.6373 70.5434 15.424C70.1594 15.2 69.6208 14.9653 68.9274 14.72C68.4368 14.5387 68.0048 14.3467 67.6314 14.144C67.2688 13.9307 66.9648 13.6907 66.7194 13.424C66.4741 13.1573 66.2874 12.8533 66.1594 12.512C66.0421 12.1707 65.9834 11.776 65.9834 11.328C65.9834 10.72 66.1381 10.2027 66.4474 9.776C66.7568 9.33867 67.1834 9.00267 67.7274 8.768C68.2821 8.53333 68.9168 8.416 69.6314 8.416C70.2608 8.416 70.8368 8.47467 71.3594 8.592C71.8821 8.70933 72.3568 8.864 72.7834 9.056L72.3354 10.288C71.9408 10.1173 71.5088 9.97333 71.0394 9.856C70.5808 9.73867 70.1008 9.68 69.5994 9.68C69.1194 9.68 68.7194 9.74933 68.3994 9.888C68.0794 10.0267 67.8394 10.224 67.6794 10.48C67.5194 10.7253 67.4394 11.0133 67.4394 11.344C67.4394 11.728 67.5194 12.048 67.6794 12.304C67.8394 12.56 68.1008 12.7893 68.4634 12.992C68.8261 13.1947 69.3168 13.4133 69.9354 13.648C70.6074 13.8933 71.1728 14.16 71.6314 14.448C72.1008 14.7253 72.4528 15.0613 72.6874 15.456C72.9328 15.8507 73.0554 16.3467 73.0554 16.944Z" fill="white"/>
</g>
<defs>
<clipPath id="clip0_96_2">
<rect width="85" height="27" fill="white"/>
</clipPath>
</defs>
</svg>
